<svg id="Layer_1" data-name="Layer 1" xmlns="http://www.w3.org/2000/svg" xmlns:xlink="http://www.w3.org/1999/xlink" viewBox="0 0 1200 300"><defs><style>.cls-1{fill:url(#radial-gradient);}.cls-2{stroke:#231f20;stroke-miterlimit:10;}.cls-3{fill:#f9aa17;}</style><radialGradient id="radial-gradient" cx="184.63" cy="150.08" fx="222.21682656777978" fy="209.14769139026572" r="107.01" gradientUnits="userSpaceOnUse"><stop offset="0.21" stop-color="#ffff5e"/><stop offset="0.46" stop-color="#ffe82e"/><stop offset="0.67" stop-color="#ffd80d"/><stop offset="0.79" stop-color="#ffd200"/><stop offset="0.86" stop-color="#ffcf00"/><stop offset="0.92" stop-color="#ffc500"/><stop offset="0.97" stop-color="#ffb400"/><stop offset="1" stop-color="#ffa900"/></radialGradient></defs><circle class="cls-1" cx="184.63" cy="150.08" r="107.01"/><path d="M291,137.9,218.66,246.38c-6.89,9.75-13.67,8.32-18,5.55a17.29,17.29,0,0,1-6.12-6.93l-11.31-22.67-69.45,2.85C99,223.76,105,209.05,105,209.05l34-75.31,7.74,15.49-30.13,59c-4.24,6.5,1.13,6.78,1.13,6.78l60.55-2.55-31.55-63.21,12.24-24,39.55,96.43h0l4.91,12c3.39,9.05,8.2,1.41,8.2,1.41l74.8-118.35,0,0A106.65,106.65,0,0,1,291,137.9Z"/><path d="M200.41,44.06l-41.48,81.21-7.7-18.75L179.9,43h0c1.57-.07,3.14-.1,4.72-.1A107.91,107.91,0,0,1,200.41,44.06Z"/><path d="M151.23,106.52,139,133.74,109.16,74.06A107.17,107.17,0,0,1,131,57.28Z"/><line class="cls-2" x1="178.24" y1="212.44" x2="178.24" y2="212.44"/><rect x="201.3" y="211.32" width="10.11" height="10.11"/><line class="cls-2" x1="178.24" y1="212.44" x2="178.24" y2="212.44"/><path class="cls-3" d="M882,185.73v-1.8q0-25.16,0-50.32a19.56,19.56,0,0,1,2-9.37c2.65-5,7-7.87,12.4-9,11-2.3,18.69,4.2,21.49,12.33,3.09,9,6,18,9.06,27q2.25,6.71,4.47,13.41c.37,1.09.93,1.95,2.21,2.05a3,3,0,0,0,3.21-1.61,8.3,8.3,0,0,0,.57-2.37,15.55,15.55,0,0,0,0-2.16V114.53c1.25-.38,12.56-.5,15.5-.2a10.11,10.11,0,0,1,.14,1.26c0,17.14.07,34.27,0,51.4,0,10.33-7.44,17.61-17.79,18-7.59.28-13-3.16-16.64-9.55a25.07,25.07,0,0,1-2-4.51q-6.24-18.42-12.41-36.86c-.24-.73-.43-1.47-.67-2.2a2.47,2.47,0,0,0-2.21-2.05,3,3,0,0,0-3.13,1.51,7.1,7.1,0,0,0-.6,2.2,15.38,15.38,0,0,0,0,2.15v50.06Z"/><path class="cls-3" d="M635.26,115.15a50.53,50.53,0,0,1,12,.91c9.94,2.18,16.64,8,20,17.62A45.24,45.24,0,0,1,669.7,146a57.42,57.42,0,0,1-1.45,18.47,38.09,38.09,0,0,1-1.61,4.8C663,178,656.25,183,647.07,184.91a43.72,43.72,0,0,1-9.48.91c-3.59-.07-7.19,0-10.76-.32-7-.61-13.33-2.85-18.35-8a28.09,28.09,0,0,1-7-13.16,58.37,58.37,0,0,1-1.36-18.63,43.9,43.9,0,0,1,2.5-12.31c3.74-9.95,11-15.62,21.36-17.61A56.39,56.39,0,0,1,635.26,115.15Zm-.3,55.76v0c2.36,0,4.73.11,7.08,0a11.49,11.49,0,0,0,10-6,20.79,20.79,0,0,0,1.89-4.67,42.11,42.11,0,0,0,.77-15.42,23,23,0,0,0-2.08-7.83c-2-4.17-5.41-6.62-10-6.82-5.17-.22-10.36-.21-15.53,0a10.62,10.62,0,0,0-9,5.57,21.33,21.33,0,0,0-2.07,5.1c-1.28,4.76-1.22,9.64-.85,14.5a23.12,23.12,0,0,0,2.08,8.31,12,12,0,0,0,11.21,7.27C630.54,171,632.75,170.91,635,170.91Z"/><path class="cls-3" d="M993.16,142.84h1.77c3.54,0,7.09.07,10.63,0a18.64,18.64,0,0,1,14.72,6.53c10.48,11.49,6.16,28.73-7.3,34.93a16.81,16.81,0,0,1-7,1.53c-4.31,0-8.63,0-12.94,0a41.1,41.1,0,0,1-11.24-1.61,25.1,25.1,0,0,1-17.1-16,43.86,43.86,0,0,1-2.51-11.53,58.74,58.74,0,0,1,.69-16.85,44.6,44.6,0,0,1,2.28-8c3.48-8.68,10-13.77,19.08-15.8a38.16,38.16,0,0,1,8.39-1q13.1,0,26.2,0c.45,0,.9,0,1.33.08.36,1.24.42,12.84.05,14.58-.6,0-1.25.1-1.9.1-8.73,0-17.46,0-26.19,0a26,26,0,0,0-4.58.45,11.42,11.42,0,0,0-8.49,6.9,23.69,23.69,0,0,0-2,8.47c-.32,4.5-.5,9,.52,13.48a23.65,23.65,0,0,0,1.77,5.05,11.29,11.29,0,0,0,10.22,6.57c5.33.2,10.68.09,16,0,2.88-.05,5.28-2.59,5.64-5.77a7,7,0,0,0-1.72-5.56,5.79,5.79,0,0,0-4.69-1.9h-9.86c-.55,0-1.1,0-1.73-.09Z"/><path class="cls-3" d="M474.05,185.77H458.46c-.19-.45-.42-1-.61-1.46-.86-2.36-1.7-4.73-2.56-7.09-.45-1.23-.46-1.24-1.75-1.24H422c-1.37,0-1.38,0-1.82,1.33-.76,2.29-1.5,4.58-2.25,6.87-.18.53-.39,1-.59,1.59H401.61c.18-.59.3-1.1.48-1.6q7.11-20,14.25-40,3.33-9.33,6.66-18.67c.26-.73.53-1.45.85-2.15,2.32-5.14,6.51-7.61,11.94-8.18a18.79,18.79,0,0,1,6.59.39,13.44,13.44,0,0,1,9.8,8.73c1,2.64,1.91,5.3,2.86,8q9.22,25.92,18.47,51.84C473.68,184.59,473.82,185.07,474.05,185.77ZM449.49,161c-.13-.48-.19-.78-.28-1.06q-4.83-13.85-9.68-27.68a7.1,7.1,0,0,0-1.06-1.85.9.9,0,0,0-1.55,0,6.46,6.46,0,0,0-.71,1.53q-4.93,13.72-9.83,27.46c-.17.47-.3.94-.49,1.55Z"/><path class="cls-3" d="M875,185.78H859.35q-1.79-4.84-3.58-9.73H821.51l-3.23,9.69h-15.7c.13-.47.21-.91.36-1.32q10.59-29.76,21.21-59.51c2.26-6.3,7.16-9.72,13.85-9.75a23.87,23.87,0,0,1,5.34.49,13.18,13.18,0,0,1,9.9,9c1.6,4.44,3.17,8.88,4.76,13.32l16.47,46.19C874.64,184.63,874.76,185.12,875,185.78ZM826.86,161h23.6c-.22-.71-.39-1.29-.58-1.86q-4.32-12.35-8.63-24.67a25.33,25.33,0,0,0-1.09-2.87c-.31-.66-.58-1.57-1.52-1.55s-1.07,1-1.39,1.64c0,.1-.06.2-.09.3q-4.9,13.68-9.8,27.35C827.19,159.8,827.06,160.29,826.86,161Z"/><path class="cls-3" d="M495.87,157.75v28h-14.6l-.11-.1s-.08-.08-.09-.13a4.11,4.11,0,0,1-.08-.6V116a5.93,5.93,0,0,1,.11-.73c.44,0,.88-.12,1.32-.12q17.71,0,35.44,0A24,24,0,0,1,528,117.37c6.24,2.89,9.68,7.86,10.76,14.56a25.68,25.68,0,0,1-.23,9.92c-1.88,8.14-7.14,12.94-15,15a25.87,25.87,0,0,1-6.09.71c-6.47.09-12.94,0-19.41.06C497.34,157.62,496.69,157.7,495.87,157.75Zm.11-14.91h20.78a15.82,15.82,0,0,0,1.69-.05,6.38,6.38,0,0,0,5.7-5.2,6.51,6.51,0,0,0-6.63-7.7c-6.66.07-13.33,0-20,0-.49,0-1,.08-1.54.13Z"/><path class="cls-3" d="M693.61,185.75H679.06c-.3-1.22-.41-68.17-.11-70.49.41,0,.85-.12,1.29-.12,11.86,0,23.73,0,35.6,0a23.23,23.23,0,0,1,11.62,3.09,17.25,17.25,0,0,1,8.12,9.88,25.13,25.13,0,0,1,.71,13.8c-1.9,8.11-7.19,12.87-15.1,15a32.79,32.79,0,0,1-8.27.72H696l-1.39,0a.84.84,0,0,0-1,.93c0,.46,0,.93,0,1.39v25.8Zm.11-43.09a5,5,0,0,0,.77.16c7.09,0,14.17,0,21.25,0a6,6,0,0,0,4.09-1.53,6.57,6.57,0,0,0,1.83-7.15,6.32,6.32,0,0,0-6.19-4.21c-6.78,0-13.55,0-20.32,0-1.46,0-1.53.09-1.54,1.61,0,3.23,0,6.46,0,9.69C693.61,141.66,693.68,142.11,693.72,142.66Z"/><path class="cls-3" d="M742.76,115.21h15.59c.21.55.42,1.07.6,1.59q9.06,25.74,18.13,51.47a8.77,8.77,0,0,0,.78,1.83,1.13,1.13,0,0,0,2.09,0,9.83,9.83,0,0,0,.71-1.7l18.11-51.15c.23-.67.5-1.33.76-2h15.54c-.18.66-.3,1.23-.49,1.77q-4.1,11.52-8.2,23l-12.63,35.48c-.13.39-.26.78-.41,1.16-1.91,5.08-5.66,7.89-10.92,8.85a18.53,18.53,0,0,1-7.49-.08A13.78,13.78,0,0,1,764.29,176c-2.39-6.82-4.83-13.62-7.26-20.42q-6.82-19.2-13.66-38.38C743.15,116.55,743,115.92,742.76,115.21Z"/><path class="cls-3" d="M545.81,129.9V115.25h47c.33,1.08.44,12.17.11,14.53-.55,0-1.15.12-1.74.12H579.31c-.6,0-1.2.08-2,.13v55.69H562.62c0-.74-.12-1.44-.13-2.14V130.06c-.74-.06-1.33-.15-1.92-.15H545.81Z"/><path class="cls-3" d="M395.81,170.93v14.79c-.52,0-1,.1-1.41.1-7.19,0-14.38.05-21.57,0a36.08,36.08,0,0,1-13.39-2.5c-8.56-3.5-13.57-10-15.68-18.84a38,38,0,0,1-1-8.84V116.85c0-.51.05-1,.09-1.61h14.62c0,.72.09,1.37.09,2,0,12.41,0,24.82,0,37.23a27.26,27.26,0,0,0,.51,5.19,13.4,13.4,0,0,0,11.36,10.87,32,32,0,0,0,4.9.36c6.52,0,13,0,19.57,0Z"/><path class="cls-3" d="M1090.74,185.75h-4.8a9.35,9.35,0,0,1-.1-.95c0-5.44,0-10.87,0-16.31a5.88,5.88,0,0,1,7.83-5.57,6.18,6.18,0,0,1,3.93,4.23c1.33,4,2.68,8,4,11.94.1.3.19.59.29.88a.94.94,0,0,0,1,.76,1.08,1.08,0,0,0,1-1,7.19,7.19,0,0,0,.06-1.23c0-3.23,0-6.46,0-9.69,0-3.42,1.75-5.51,5.07-6.12a5.33,5.33,0,0,1,5.44,2.1,8.74,8.74,0,0,1,1.25,2.28c2.12,5.83,4.2,11.67,6.29,17.5.11.33.17.67.28,1.12h-5.1c-.2-.52-.43-1.08-.63-1.65q-2.61-7.56-5.21-15.11c-.1-.29-.2-.58-.31-.87-.18-.49-.54-.85-1-.66a1.76,1.76,0,0,0-.92.88,3.65,3.65,0,0,0-.1,1.37c0,3.23,0,6.46,0,9.69a5.56,5.56,0,0,1-3.54,5.6,5.81,5.81,0,0,1-8.08-3.58c-1.18-3.17-2.19-6.4-3.28-9.6-.39-1.17-.8-2.33-1.18-3.5-.17-.53-.43-1-1.06-.9a1.11,1.11,0,0,0-1,1.15c0,.46,0,.92,0,1.38q0,7,0,14C1090.85,184.53,1090.78,185.13,1090.74,185.75Z"/><path class="cls-3" d="M1059.61,174.28a43.56,43.56,0,0,1,1-5.44,8.41,8.41,0,0,1,7.15-6,22.41,22.41,0,0,1,6.44-.07,8.67,8.67,0,0,1,7.92,7.24,18.86,18.86,0,0,1,0,8.39c-1,4.56-4,7-8.83,7.33a29.14,29.14,0,0,1-6-.26,7.84,7.84,0,0,1-6.74-5.77A45.25,45.25,0,0,1,1059.61,174.28Zm11.51,6.79h0c.67,0,1.33,0,2,0a4,4,0,0,0,4.17-3,12.37,12.37,0,0,0,0-7.84,3.94,3.94,0,0,0-3.92-2.89c-1.44,0-2.87,0-4.31,0a3.86,3.86,0,0,0-3.8,2.62,11.89,11.89,0,0,0,0,8.55,3.83,3.83,0,0,0,3.7,2.53C1069.68,181.09,1070.4,181.07,1071.12,181.07Z"/><path class="cls-3" d="M1056.69,181.08v4.61c-.41,0-.8.12-1.19.13-2.57,0-5.13,0-7.7,0a14.4,14.4,0,0,1-3.19-.43,8.19,8.19,0,0,1-6.23-6.15,18.22,18.22,0,0,1,0-9.72c1-3.86,3.54-6.25,7.56-6.61,3.51-.32,7-.27,10.5-.37a8.78,8.78,0,0,1,.14,4.76c-.42,0-.86.07-1.31.07-2.62,0-5.24,0-7.86,0a4.21,4.21,0,0,0-4.52,3.56,13.89,13.89,0,0,0,0,6.69,4.14,4.14,0,0,0,4.44,3.46c2.56,0,5.13,0,7.69,0Z"/><path class="cls-3" d="M1035,185.75h-4.81v-4.57a28.61,28.61,0,0,1,4.81,0Z"/></svg>