<svg xmlns="http://www.w3.org/2000/svg" viewBox="0 0 24.77 23.8625" x="0px" y="0px"><title>Ресурс 18</title><g data-name="Слой 2"><g data-name="Слой 1"><path d="M24.74,14.23a.93.93,0,0,0-.34-.5l-.48-.42,0-.07,0-.27,0-.63a.14.14,0,0,1,0-.07l.57-.57a1,1,0,0,0,.17-.28,1,1,0,0,0-.06-.85l-1-1.76A1,1,0,0,0,23,8.38a1.08,1.08,0,0,0-.61,0l-.61.22-.52-.23-.34-.22a.15.15,0,0,1,0-.06l-.2-.78A1,1,0,0,0,20.5,7,1,1,0,0,0,20,6.71a1,1,0,0,0-.3,0h-2a1,1,0,0,0-.67.27.94.94,0,0,0-.28.54l-.13.63,0,.07-.23.15-.56.28H15.7l-.78-.22a1,1,0,0,0-.84.21.94.94,0,0,0-.19.24l-1,1.76a1,1,0,0,0-.1.72.93.93,0,0,0,.33.51l.47.43,0,.07,0,.84v.09a.15.15,0,0,1,0,.07l-.59.56a1,1,0,0,0-.24.83.94.94,0,0,0,.11.29l1,1.78a1,1,0,0,0,.56.45,1.14,1.14,0,0,0,.61,0l.61-.19h.08l.24.12.52.35a.14.14,0,0,1,0,.06l.19.79a.93.93,0,0,0,.14.29.95.95,0,0,0,.76.39l2.05,0a1,1,0,0,0,.66-.26.93.93,0,0,0,.29-.53l.15-.62,0-.07.77-.49.17-.1h.08l.78.21a1,1,0,0,0,.84-.23.94.94,0,0,0,.19-.24l1-1.79A1,1,0,0,0,24.74,14.23Zm-1.94.53-.36.65a2.5,2.5,0,0,0-3.29,2h-.91a2.49,2.49,0,0,0-3.21-2l-.37-.67A2.49,2.49,0,0,0,14.62,11l.43-.74a2.49,2.49,0,0,0,.79.14,2.52,2.52,0,0,0,2.46-2h.83a2.49,2.49,0,0,0,3.31,1.85l.42.73a2.48,2.48,0,0,0-.05,3.81Z"/><path d="M12.89,1.21A4.64,4.64,0,0,0,9.7,0,4.64,4.64,0,0,0,6.51,1.21,4.86,4.86,0,0,0,5.18,5.07,5.21,5.21,0,0,0,6.67,8.13a4.29,4.29,0,0,0,3,1.71h0a4.27,4.27,0,0,0,3-1.71,5.22,5.22,0,0,0,1.49-3.06A4.86,4.86,0,0,0,12.89,1.21Zm-.36,3.7a3.56,3.56,0,0,1-1,2.08C11,7.47,10.42,8.13,9.7,8.14S8.48,7.59,7.92,7a3.55,3.55,0,0,1-1-2.08,3.19,3.19,0,0,1,.81-2.46,3,3,0,0,1,2-.74,3,3,0,0,1,2,.74A3.19,3.19,0,0,1,12.53,4.9Z"/><path d="M11.76,17.39H1.92a7.91,7.91,0,0,1,4.57-5.25,6.73,6.73,0,0,0,3.1.82H9.7a6.56,6.56,0,0,0,.76-.05.85.85,0,0,0-.24-1.68,4.48,4.48,0,0,1-.52,0H9.61a5.09,5.09,0,0,1-2.72-.86.52.52,0,0,0-.29-.09.55.55,0,0,0-.18,0A9.63,9.63,0,0,0,0,18.4a.67.67,0,0,0,.11.4.74.74,0,0,0,.58.29H11.76a.85.85,0,0,0,0-1.7Z"/><circle cx="18.75" cy="12.8" r="1.29"/></g></g><text x="0" y="34.09" fill="#000000" font-size="5px" font-weight="bold" font-family="'Helvetica Neue', Helvetica, Arial-Unicode, Arial, Sans-serif">Created by andrewcaliber</text><text x="0" y="39.09" fill="#000000" font-size="5px" font-weight="bold" font-family="'Helvetica Neue', Helvetica, Arial-Unicode, Arial, Sans-serif">from the Noun Project</text></svg>