<svg xmlns="http://www.w3.org/2000/svg" xmlns:xlink="http://www.w3.org/1999/xlink" viewBox="0,0,256,256" width="48px" height="48px"><g fill="#5b9bf1" fill-rule="nonzero" stroke="none" stroke-width="1" stroke-linecap="butt" stroke-linejoin="miter" stroke-miterlimit="10" stroke-dasharray="" stroke-dashoffset="0" font-family="none" font-weight="none" font-size="none" text-anchor="none" style="mix-blend-mode: normal"><g transform="scale(5.33333,5.33333)"><path d="M24,4c-11.02793,0 -20,8.97207 -20,20c0,11.02793 8.97207,20 20,20c11.02793,0 20,-8.97207 20,-20c0,-11.02793 -8.97207,-20 -20,-20zM24,7c9.40662,0 17,7.59339 17,17c0,9.40661 -7.59338,17 -17,17c-9.40661,0 -17,-7.59339 -17,-17c0,-9.40661 7.59339,-17 17,-17zM23.47656,11.97852c-0.82766,0.01293 -1.48843,0.69381 -1.47656,1.52148v12c0.00008,0.82839 0.67161,1.49992 1.5,1.5h8c0.54095,0.00765 1.04412,-0.27656 1.31683,-0.74381c0.27271,-0.46725 0.27271,-1.04514 0,-1.51238c-0.27271,-0.46725 -0.77588,-0.75146 -1.31683,-0.74381h-6.5v-10.5c0.00582,-0.40562 -0.15288,-0.7963 -0.43991,-1.08296c-0.28703,-0.28666 -0.67792,-0.44486 -1.08353,-0.43852z"></path></g></g></svg>