<svg xmlns="http://www.w3.org/2000/svg" xmlns:ooo="http://xml.openoffice.org/svg/export" xmlns:xlink="http://www.w3.org/1999/xlink" xmlns:presentation="http://sun.com/xmlns/staroffice/presentation" xmlns:smil="http://www.w3.org/2001/SMIL20/" xmlns:anim="urn:oasis:names:tc:opendocument:xmlns:animation:1.0" version="1.2" viewBox="0 0 2540 3175" preserveAspectRatio="xMidYMid" fill-rule="evenodd" stroke-width="28.222" stroke-linejoin="round" xml:space="preserve" x="0px" y="0px"><defs class="ClipPathGroup"><clipPath id="a" clipPathUnits="userSpaceOnUse"><rect x="0" y="0" width="2540" height="2540"/></clipPath></defs><g class="SlideGroup"><g><g><g class="Slide" clip-path="url(#a)"><g class="Page"><g class="com.sun.star.drawing.ClosedBezierShape"><g><rect class="BoundingBox" stroke="none" fill="none" x="254" y="673" width="2033" height="1157"/><path fill="rgb(0,0,0)" stroke="none" d="M 277,1419 L 2250,1254 C 2262,1253 2276,1263 2277,1275 L 2286,1374 C 2287,1386 2275,1400 2263,1401 L 290,1566 C 278,1567 265,1555 264,1543 L 255,1445 C 254,1433 265,1420 277,1419 Z M 293,908 L 728,872 C 747,870 768,887 770,906 L 804,1313 C 806,1332 787,1353 769,1355 L 333,1391 C 314,1393 294,1375 292,1356 L 258,949 C 256,930 274,910 293,908 Z M 1950,673 C 2118,673 2247,802 2247,971 2247,1140 2118,1269 1950,1269 1782,1269 1653,1140 1653,971 1653,802 1782,673 1950,673 Z M 1263,1501 C 1268,1498 1272,1497 1278,1497 1283,1497 1288,1498 1292,1501 1296,1503 1299,1506 1302,1510 L 1487,1783 C 1487,1784 1487,1784 1488,1785 1490,1790 1492,1794 1492,1800 1492,1805 1490,1810 1488,1814 1485,1819 1482,1822 1477,1825 1472,1828 1468,1829 1463,1829 L 1093,1829 C 1088,1829 1083,1828 1079,1825 1074,1822 1071,1819 1068,1814 1065,1810 1064,1805 1064,1800 1064,1794 1065,1790 1068,1785 1068,1784 1069,1784 1069,1783 L 1254,1510 C 1256,1506 1259,1503 1263,1501 Z"/></g></g></g></g></g></g></g><text x="0" y="2555" fill="#000000" font-size="5px" font-weight="bold" font-family="'Helvetica Neue', Helvetica, Arial-Unicode, Arial, Sans-serif">Created by Erik Arndt</text><text x="0" y="2560" fill="#000000" font-size="5px" font-weight="bold" font-family="'Helvetica Neue', Helvetica, Arial-Unicode, Arial, Sans-serif">from the Noun Project</text></svg>