<svg xmlns="http://www.w3.org/2000/svg"  viewBox="0 0 24 24" width="24px" height="24px"><path d="M18.75 19.5A.75.75 0 1018.75 21 .75.75 0 1018.75 19.5zM14.75 19.5A.75.75 0 1014.75 21 .75.75 0 1014.75 19.5zM10.75 19.5A.75.75 0 1010.75 21 .75.75 0 1010.75 19.5zM15.901 6.875l1.218-1.773c.128-.187.165-.421.101-.638-.034-.114-.36-1.135-1.371-1.828-1.01-.693-2.078-.626-2.198-.622-.226.019-.431.137-.559.323l-1.218 1.773L15.901 6.875zM11.025 5.347L3.333 16.543c-.077.112-.122.243-.13.379l-.201 3.282c-.016.263.107.515.324.664C3.453 20.955 3.602 21 3.75 21c.106 0 .212-.022.312-.068l2.991-1.367c.124-.056.229-.145.306-.257l7.692-11.196L11.025 5.347z"/></svg>