<?xml version="1.0"?><svg xmlns="http://www.w3.org/2000/svg"  viewBox="0 0 50 50" width="50px" height="50px">    <path d="M 25 2 C 17.832484 2 12 7.8324839 12 15 L 12 21 L 8 21 C 6.3550302 21 5 22.35503 5 24 L 5 47 C 5 48.64497 6.3550302 50 8 50 L 42 50 C 43.64497 50 45 48.64497 45 47 L 45 24 C 45 22.35503 43.64497 21 42 21 L 38 21 L 38 15 C 38 7.8324839 32.167516 2 25 2 z M 25 4 C 31.086484 4 36 8.9135161 36 15 L 36 21 L 14 21 L 14 15 C 14 8.9135161 18.913516 4 25 4 z M 8 23 L 42 23 C 42.56503 23 43 23.43497 43 24 L 43 47 C 43 47.56503 42.56503 48 42 48 L 8 48 C 7.4349698 48 7 47.56503 7 47 L 7 24 C 7 23.43497 7.4349698 23 8 23 z M 13 34 A 2 2 0 0 0 11 36 A 2 2 0 0 0 13 38 A 2 2 0 0 0 15 36 A 2 2 0 0 0 13 34 z M 21 34 A 2 2 0 0 0 19 36 A 2 2 0 0 0 21 38 A 2 2 0 0 0 23 36 A 2 2 0 0 0 21 34 z M 29 34 A 2 2 0 0 0 27 36 A 2 2 0 0 0 29 38 A 2 2 0 0 0 31 36 A 2 2 0 0 0 29 34 z M 37 34 A 2 2 0 0 0 35 36 A 2 2 0 0 0 37 38 A 2 2 0 0 0 39 36 A 2 2 0 0 0 37 34 z"/></svg>