<svg xmlns="http://www.w3.org/2000/svg" width="19" height="20" viewBox="0 0 19 20" fill="none">
<path d="M16.3248 7.46875C16.3248 7.46875 15.7818 14.2037 15.4668 17.0407C15.3168 18.3957 14.4798 19.1898 13.1088 19.2148C10.4998 19.2618 7.88779 19.2648 5.27979 19.2098C3.96079 19.1828 3.13779 18.3788 2.99079 17.0478C2.67379 14.1858 2.13379 7.46875 2.13379 7.46875" stroke="#9E9DA8" stroke-width="1.5" stroke-linecap="round" stroke-linejoin="round"/>
<path d="M17.708 4.24023H0.75" stroke="#9E9DA8" stroke-width="1.5" stroke-linecap="round" stroke-linejoin="round"/>
<path d="M14.4406 4.23998C13.6556 4.23998 12.9796 3.68498 12.8256 2.91598L12.5826 1.69998C12.4326 1.13898 11.9246 0.750977 11.3456 0.750977H7.11258C6.53358 0.750977 6.02558 1.13898 5.87558 1.69998L5.63258 2.91598C5.47858 3.68498 4.80258 4.23998 4.01758 4.23998" stroke="#9E9DA8" stroke-width="1.5" stroke-linecap="round" stroke-linejoin="round"/>
</svg>